<?xml version="1.0" encoding="UTF-8"?><svg id="a" xmlns="http://www.w3.org/2000/svg" width="160.87mm" height="39.8mm" viewBox="0 0 456.01 112.82"><path d="m120.5,80.97v20.09h9.54v3.7h-14.04v-23.79h4.5Z"/><path d="m140.04,87.07c4.53,0,7.61,3.56,7.61,8.64,0,.48,0,1.04-.07,1.63h-11.72c.28,2.63,2.35,4.43,5.26,4.43,1.59,0,3.35-.59,5.15-1.63v3.7c-1.97.9-3.94,1.35-5.88,1.35-5.22,0-8.89-3.8-8.89-9.2s3.6-8.92,8.54-8.92h0Zm-.17,3.42c-2.14,0-3.8,1.59-4.01,3.98h7.54c-.14-2.35-1.56-3.98-3.53-3.98Z"/><path d="m155.6,87.48v1.49c1.56-1.24,3.28-1.9,5.05-1.9,3.6,0,6.15,2.56,6.15,6.22v11.48h-4.46v-10.68c0-1.83-1.24-3.15-3.04-3.15-1.28,0-2.56.62-3.7,1.83v12h-4.43v-17.29s4.43,0,4.43,0Z"/><path d="m175.82,101.69c1.56,0,2.63-.8,2.63-1.9,0-2.9-8.02-1.35-8.02-7.4,0-3.15,2.73-5.32,6.6-5.32,1.63,0,3.32.35,4.91,1v3.84c-1.49-.9-3.08-1.35-4.6-1.35s-2.49.73-2.49,1.76c0,2.77,8.02,1.21,8.02,7.4,0,3.22-2.77,5.46-6.78,5.46-1.76,0-3.53-.41-5.29-1.18v-3.91c1.66,1.04,3.35,1.59,5.01,1.59h0Z"/><path d="m205.21,87.48v3.56h-4.98v7.99c0,1.42,1,2.45,2.52,2.45.73,0,1.56-.24,2.45-.69v3.66c-1.24.48-2.45.73-3.63.73-3.39,0-5.77-2.32-5.77-5.57v-8.57h-2.97v-3.56h2.97v-4.87h4.43v4.87h4.98Z"/><path d="m216.45,87.07c5.22,0,8.89,3.73,8.89,9.06s-3.66,9.06-8.89,9.06-8.92-3.77-8.92-9.06,3.7-9.06,8.92-9.06Zm0,14.42c2.56,0,4.36-2.18,4.36-5.36s-1.8-5.36-4.36-5.36-4.39,2.18-4.39,5.36,1.8,5.36,4.39,5.36Z"/><path d="m242.08,79.9v24.86h-4.43v-24.86h4.43Z"/><path d="m254.29,87.07c4.53,0,7.61,3.56,7.61,8.64,0,.48,0,1.04-.07,1.63h-11.72c.28,2.63,2.35,4.43,5.26,4.43,1.59,0,3.35-.59,5.15-1.63v3.7c-1.97.9-3.94,1.35-5.88,1.35-5.22,0-8.89-3.8-8.89-9.2s3.6-8.92,8.54-8.92h0Zm-.17,3.42c-2.14,0-3.8,1.59-4.01,3.98h7.54c-.14-2.35-1.56-3.98-3.53-3.98h0Z"/><path d="m271.96,112.76c-2.01,0-4.05-.45-6.09-1.31v-3.87c1.94,1.07,3.91,1.69,5.67,1.69,2.9,0,4.91-1.87,4.91-4.56v-1.14c-1.35,1.07-2.87,1.62-4.39,1.62-4.6,0-7.81-3.73-7.81-9.06s3.22-9.06,7.81-9.06c1.52,0,3.04.55,4.39,1.59v-1.18h4.46v17.08c0,4.77-3.67,8.19-8.95,8.19h0Zm1.07-11.37c1.21,0,2.42-.52,3.42-1.56v-7.4c-1-1.04-2.21-1.56-3.42-1.56-2.52,0-4.25,2.14-4.25,5.26s1.73,5.26,4.25,5.26Z"/><path d="m293.08,87.07c4.53,0,7.61,3.56,7.61,8.64,0,.48,0,1.04-.07,1.63h-11.72c.28,2.63,2.35,4.43,5.26,4.43,1.59,0,3.35-.59,5.15-1.63v3.7c-1.97.9-3.94,1.35-5.88,1.35-5.22,0-8.89-3.8-8.89-9.2s3.6-8.92,8.54-8.92h0Zm-.17,3.42c-2.14,0-3.8,1.59-4.01,3.98h7.54c-.14-2.35-1.56-3.98-3.53-3.98Z"/><path d="m308.64,87.48v1.49c1.56-1.24,3.28-1.9,5.05-1.9,3.6,0,6.15,2.56,6.15,6.22v11.48h-4.46v-10.68c0-1.83-1.24-3.15-3.04-3.15-1.28,0-2.56.62-3.7,1.83v12h-4.43v-17.29h4.43Z"/><path d="m335.54,104.77v-1.21c-1.35,1.07-2.87,1.62-4.39,1.62-4.6,0-7.81-3.73-7.81-9.06s3.22-9.06,7.81-9.06c1.52,0,3.04.55,4.39,1.59v-8.75h4.46v24.86h-4.46Zm-3.42-3.39c1.21,0,2.42-.52,3.42-1.56v-7.4c-1-1.04-2.21-1.56-3.42-1.56-2.52,0-4.25,2.14-4.25,5.26s1.73,5.26,4.25,5.26Z"/><rect x="262.32" y="49.4" width="3.17" height=".88"/><path d="m250.65,47.3c-.07-.35-.16-.55-.24-.68-.17-.31-.54-.78-1.4-.78-.28,0-.82.03-1.31.56-.4.44-.77,1.18-.77,2.5,0,.89.18,1.92.87,2.56.48.44,1.01.46,1.24.46.17,0,.59,0,.99-.31.63-.49.68-1.41.71-1.59h1.11c0,.27-.04,1.17-.56,1.91-.29.43-.93,1.07-2.2,1.07-.26,0-.89-.02-1.53-.34-.88-.44-1.93-1.49-1.93-3.74,0-1.95.75-2.98,1.42-3.5.78-.59,1.62-.64,1.97-.64,1.03,0,1.99.45,2.43,1.42.17.36.22.72.27,1.11h-1.09.02Z"/><path d="m255.45,45.32c.76-.52,1.51-.55,1.84-.55,1.19,0,1.92.56,2.24.89.54.52,1.17,1.49,1.17,3.22,0,.47-.02,2.54-1.64,3.59-.54.35-1.12.52-1.77.52-.28,0-.95-.03-1.63-.43-1.76-1.01-1.79-3.21-1.79-3.68,0-1.33.41-2.76,1.58-3.56m.1,5.47c.17.33.34.5.45.62.49.48,1.03.52,1.29.52.73,0,1.3-.37,1.66-1,.21-.36.46-1.04.46-2.05,0-.22.02-1.74-.84-2.56-.2-.19-.59-.49-1.28-.49-.17,0-.56,0-.94.25-1.22.72-1.18,2.61-1.18,2.8,0,.22,0,1.16.38,1.92"/><polygon points="272 48.2 272 49.25 268.81 49.25 268.81 51.78 272.38 51.78 272.38 52.83 267.59 52.83 267.59 44.91 272.28 44.91 272.28 45.96 268.81 45.96 268.81 48.2 272 48.2"/><polygon points="276.21 44.91 279.71 50.96 279.71 44.91 280.87 44.91 280.87 52.83 279.6 52.83 276.07 46.79 276.07 52.83 274.9 52.83 274.9 44.91 276.21 44.91"/><path d="m289.82,48.82v3.28c-.09.07-.34.24-.62.38-.32.16-1.13.5-2.16.5-1.41,0-2.2-.64-2.58-1.08-.43-.49-.95-1.46-.95-3.04,0-.45.01-2.58,1.64-3.6.29-.18.91-.49,1.78-.49,1,0,1.99.4,2.47,1.33.15.27.26.57.31,1.19h-1.09c-.06-.28-.19-1.1-1.05-1.37-.26-.09-.53-.1-.62-.1-.33,0-1.08.08-1.6.83-.43.62-.56,1.51-.56,2.23,0,1.44.52,3.03,2.27,3.03.57,0,1.23-.2,1.73-.52v-1.62h-1.6v-.96h2.65-.02Z"/><rect x="292.63" y="44.91" width="1.23" height="7.92"/><polygon points="298.27 44.91 301.77 50.96 301.77 44.91 302.92 44.91 302.92 52.83 301.66 52.83 298.12 46.79 298.12 52.83 296.96 52.83 296.96 44.91 298.27 44.91"/><polygon points="310.43 48.2 310.43 49.25 307.24 49.25 307.24 51.78 310.81 51.78 310.81 52.83 306.02 52.83 306.02 44.91 310.71 44.91 310.71 45.96 307.24 45.96 307.24 48.2 310.43 48.2"/><polygon points="317.74 48.2 317.74 49.25 314.56 49.25 314.56 51.78 318.12 51.78 318.12 52.83 313.33 52.83 313.33 44.91 318.02 44.91 318.02 45.96 314.56 45.96 314.56 48.2 317.74 48.2"/><path d="m322.34,44.91c.44,0,1.02,0,1.46.06.33.06,1.27.19,1.78,1.08.12.2.31.62.3,1.21,0,.19-.02.77-.35,1.28-.17.26-.39.47-.64.64-.22.15-.43.21-.52.26l1.95,3.4h-1.45l-1.81-3.2h-1.22v3.2h-1.22v-7.92h1.72Zm.71,3.67c.33-.02,1.58-.04,1.57-1.35,0-.64-.36-.94-.57-1.05-.45-.26-1.22-.21-1.69-.22h-.49v2.62h1.19-.01Z"/><polygon points="333.01 48.2 333.01 49.25 329.82 49.25 329.82 51.78 333.39 51.78 333.39 52.83 328.6 52.83 328.6 44.91 333.29 44.91 333.29 45.96 329.82 45.96 329.82 48.2 333.01 48.2"/><path d="m338.17,44.91c1.29.04,1.9.3,2.39.68.57.44,1.45,1.46,1.44,3.28,0,1.11-.36,2.31-1.2,3.08-.96.9-2.22.87-3.42.87h-1.45v-7.92h2.24Zm-.37,6.86c.62,0,.9,0,1.19-.09.55-.12,1.32-.49,1.63-1.77.11-.48.11-.87.11-1.05,0-1.14-.39-2.4-1.62-2.77-.42-.12-.79-.13-1.62-.13h-.35v5.82h.66Z"/><polygon points="349.35 44.91 350.88 51.36 352.43 44.91 353.48 44.91 355.04 51.36 356.58 44.91 357.71 44.91 355.74 52.86 354.37 52.86 352.94 47.21 351.53 52.86 350.16 52.86 348.2 44.91 349.35 44.91"/><rect x="359.97" y="44.91" width="1.23" height="7.92"/><polygon points="368.9 44.91 368.9 45.96 366.81 45.96 366.81 52.83 365.59 52.83 365.59 45.96 363.51 45.96 363.51 44.91 368.9 44.91"/><polygon points="375.84 48.19 375.84 44.91 377.06 44.91 377.06 52.83 375.84 52.83 375.84 49.21 372.43 49.21 372.43 52.83 371.19 52.83 371.19 44.91 372.43 44.91 372.43 48.19 375.84 48.19"/><path d="m400.82,64.9c8.81,0,15.95-7.14,15.95-15.95s-7.14-15.95-15.95-15.95-15.95,7.14-15.95,15.95,7.14,15.95,15.95,15.95Z" style="fill:#e50012;"/><path d="m413.5,49.85s-.42.3-.71.3c-.22,0-.35-.19-.35-.39,0-.46.72-2.73.72-2.73l-1.77.02-.09.31s-.26-.52-1.18-.52c-1.8,0-2.78,1.55-2.83,2.46,0,.2-.01.23-.01.23-.04.05-.68.77-1.46.77-.62,0-.73-.52-.73-.86,0-.36.3-1.8,1.15-1.8.46,0,.75.4.75.4l.25-.82s-.4-.31-1.2-.31c-1.74,0-2.93,1.3-2.97,2.48,0,.18-.02.23-.01.24-.06.07-.49.56-1.04.56-.38,0-.38-.3-.38-.43,0-.18.75-2.74.75-2.74l-1.96.03-.7,2.48s-1.08.78-2.58.89c-.78.05-1.04-.42-1.04-.69v-.11s.32.02.55.02c.18,0,2.48-.16,2.48-1.56,0-.8-.8-1.11-1.82-1.11-1.87,0-3.19,1.16-3.19,2.54,0,1.26,1.08,1.8,2.46,1.8,1.57,0,3.11-.96,3.11-.96,0,0,.09.96,1.33.96s2.29-.96,2.29-.96c0,0,.56.93,1.83.93s2.3-1.05,2.3-1.05c0,0,.35.99,1.64.99,1.01,0,1.55-.66,1.55-.66,0,0,.29.66,1.17.66,1.07,0,1.88-.76,1.88-.76l-.19-.62h0Zm-16.1-2.3c.26.02.44.2.43.4-.04,1.25-1.58,1.06-1.58,1.06,0,0,.25-1.51,1.15-1.45h0Zm12.36,2.75c-.48,0-.48-.53-.48-.69,0-.41.32-2.02,1.2-2.02.37,0,.57.31.57.55,0,.05-.22,2.16-1.28,2.16h-.01Z" style="fill:#fff;"/><path d="m413.85,51.54s-4.13,1.44-12.01,1.34c-5.43-.07-9.58-1.67-9.58-1.67,0,0,.13-.26.22-.44.55-1.11,1.19-3.36,1.19-3.36,0,0,3.73-1.04,3.73-4.01,0-.94-.87-1.54-1.73-1.58-3.01-.12-3.84,4.17-4.03,4.9-.01.05-.02.07-.02.07-.93-.13-1.45-.32-1.45-.32l-.21.58c.63.3,1.54.39,1.54.39-.18,1.15-1.07,3.33-1.07,3.33,0,0-.82-.27-1.85-.27-1.33,0-1.78.63-1.82,1.03-.09,1.02,1.2,1.51,2.1,1.51,1.75,0,2.67-.95,2.67-.95,0,0,4.93,1.86,10.08,1.86,6.74,0,12.42-1.79,12.42-1.79l-.19-.62h0Zm-18.03-8.87c.58,0,.77.47.72.89-.28,2.48-2.74,3.04-2.74,3.04,0,0,.61-3.93,2.02-3.93Zm-7.33,9.56c-.5.02-.82-.31-.82-.5,0-.41.5-.47.82-.45.77.04,1.43.31,1.43.31,0,0-.78.62-1.43.64Z" style="fill:#fff;"/><path d="m401.8,44.71c-.63,0-1.09.25-1.09.84s.53.76,1.09.76,1.06-.26,1.06-.87-.61-.73-1.06-.73Z" style="fill:#fff;"/><path d="m250.42,9.33v-4.07l7.31-4h3v23.71h-4.51V6.13l-5.79,3.21h0Z"/><path d="m267.25,19.09v-2.79l10.86-15.03h3.62v14.41h3.52v3.41h-3.52v5.89h-4.27v-5.89h-10.21Zm10.2-11.65l-5.93,8.24h5.93s0-8.24,0-8.24Z"/><path d="m166.54.84c-3.56,0-7.12.45-9.37,2.66s-3.12,5.54-3.12,9.62.77,7.35,3.03,9.56c2.25,2.21,5.9,2.74,9.46,2.74s7.1-.45,9.35-2.67c2.25-2.21,3.14-5.56,3.14-9.64s-.79-7.32-3.04-9.54c-2.25-2.21-5.89-2.74-9.45-2.74h0Zm5.39,18.16c-1.25,1.43-3.52,1.68-5.39,1.68s-4.14-.25-5.39-1.68-1.34-3.4-1.34-5.89.08-4.4,1.33-5.83c1.25-1.43,3.27-1.68,5.39-1.68s4.14.25,5.39,1.68c1.25,1.43,1.33,3.35,1.33,5.83s-.08,4.45-1.33,5.88h0ZM117.26,1.28h-5.03c-.22,0-.39.17-.39.38v22.97c0,.21.17.38.39.38h5.03c.21,0,.39-.17.39-.38V1.66c0-.21-.18-.38-.39-.38Zm-21.16,11.67l8.94-11.07c.19-.24.02-.6-.29-.6h-6.45c-.15,0-.3.07-.39.19l-5.91,7.83-5.76-7.83c-.09-.13-.24-.2-.39-.2h-6.47c-.31,0-.48.36-.29.6l9.05,11.28-9.06,11.26c-.19.24-.01.59.29.59h6.46c.16,0,.31-.08.4-.2l6.04-7.8,5.72,7.81c.09.13.24.2.4.2h6.38c.31,0,.48-.35.29-.59l-8.96-11.47h0ZM218.68,3.02c-2.05-1.91-5.34-2.14-8.01-2.14-3.44,0-5.63.73-6.96,1.42h-.92c-1.3-.72-3.59-1.42-7.19-1.42-2.67,0-5.93.2-7.95,1.89-1.67,1.4-2.05,3.26-2.05,7.08v14.76c0,.21.18.38.39.38h5.03c.22,0,.39-.17.39-.38v-12.15c0-2.19-.09-4.48.39-5.33.37-.66.95-1.4,3.68-1.4,3.26,0,4.03.23,4.54,1.67.12.34.18.83.21,1.42v15.79c0,.21.18.38.39.38h5.03c.21,0,.39-.17.39-.38v-15.79c.03-.59.09-1.08.21-1.42.51-1.44,1.28-1.67,4.54-1.67,2.73,0,3.31.74,3.68,1.4.47.85.39,3.13.39,5.33v12.15c0,.21.18.38.39.38h5.03c.21,0,.39-.17.39-.38v-13.86c0-3.97-.13-6-1.99-7.73h0Zm-72.24,1.41c-2.33-3.21-6.53-4.18-10.89-3.94-4.42.24-7.5,1.18-8.29,1.47-.49.18-.43.6-.43.86-.02.85-.08,3.04-.08,3.93,0,.39.48.58.89.43,1.61-.57,4.59-1.48,6.98-1.68,2.58-.21,6.09,0,7.06,1.47.46.7.49,1.76.54,2.85-1.61-.15-4-.35-6.37-.22-1.85.1-5.39.25-7.47,1.36-1.69.9-2.69,1.72-3.22,3.25-.43,1.23-.54,2.7-.41,3.91.31,2.75,1.26,4.11,2.55,5.06,2.03,1.5,4.6,2.3,9.9,2.18,7.06-.15,8.92-2.44,9.85-4.06,1.59-2.76,1.32-7.11,1.27-9.79-.02-1.11-.18-4.75-1.88-7.1v.02Zm-4.6,14.48c-.67,1.4-3.04,1.62-4.45,1.68-2.6.12-4.52.01-5.75-.6-.82-.41-1.42-1.34-1.48-2.39-.05-.9-.03-1.36.38-1.9.91-1.19,3.3-1.45,5.76-1.54,1.66-.06,4.19.12,6.05.35,0,1.8-.13,3.61-.51,4.4h0ZM234.09,1.28h-5.03c-.22,0-.39.17-.39.38v22.97c0,.21.17.38.39.38h5.03c.21,0,.39-.17.39-.38V1.66c0-.21-.18-.38-.39-.38Z"/><path d="m311.33,25.38c-5.99,0-10.18-3.88-10.18-9.32V1.14h4.5v14.62c0,3.39,2.39,5.82,5.68,5.82s5.64-2.42,5.64-5.82V1.14h4.54v14.93c0,5.44-4.23,9.32-10.18,9.32h0Z"/><path d="m331.32.06v24.9h-4.43V.06h4.43Z"/><path d="m346.76,7.65v3.57h-4.99v8c0,1.42,1,2.46,2.53,2.46.73,0,1.56-.24,2.46-.69v3.67c-1.25.48-2.46.73-3.64.73-3.39,0-5.78-2.32-5.78-5.58v-8.59h-2.98v-3.57h2.98V2.76h4.43v4.88h4.99Z"/><path d="m354.97,7.65v1.73c1.25-1.39,2.77-2.15,4.26-2.15.48,0,.97.03,1.45.17v3.95c-.48-.14-1.04-.21-1.56-.21-1.45,0-3.01.8-4.16,2.25v11.57h-4.43V7.65h4.44Z"/><path d="m367.78,25.38c-3.22,0-5.51-2.11-5.51-5.16,0-3.6,3.39-6.1,8.35-6.1.69,0,1.39.03,2.15.07v-.8c0-1.63-1.32-2.74-3.26-2.74-1.8,0-3.78.55-5.75,1.66v-3.67c2.11-.97,4.23-1.42,6.27-1.42,4.23,0,6.96,2.63,6.96,6.37v11.36h-4.23v-1.39c-1.52,1.18-3.22,1.8-4.99,1.8v.02Zm1.45-3.43c1.21,0,2.46-.62,3.53-1.7v-3.39c-.62-.07-1.25-.1-1.94-.1-2.49,0-4.19,1.18-4.19,2.84,0,1.39,1.07,2.35,2.6,2.35Z"/></svg>